<?xml version="1.0" encoding="UTF-8"?>
<svg width="38px" height="39px" viewBox="0 0 38 39" version="1.1" xmlns="http://www.w3.org/2000/svg" xmlns:xlink="http://www.w3.org/1999/xlink">
    <!-- Generator: Sketch 47.1 (45422) - http://www.bohemiancoding.com/sketch -->
    <title>logo_gitee</title>
    <desc>Created with Sketch.</desc>
    <defs></defs>
    <g id="Page-1" stroke="none" stroke-width="1" fill="none" fill-rule="evenodd">
        <g id="gitee_48" transform="translate(-5.000000, -4.000000)" fill="#C71D23">
            <path d="M41.3111111,19.2608696 L21.8866892,19.2608696 C20.9536938,19.2608696 20.1980098,20.0200978 20.1980098,20.9565217 L20.1980098,26.0434783 C20.1980098,26.9799022 20.9536938,27.7391304 21.8866892,27.7391304 C29.178447,27.7390457 32.8384395,27.7390033 32.8666667,27.7390033 C34.1340954,27.7390033 34.5549701,28.1634985 34.5555556,29.4346554 C34.5571176,32.8259598 32.6175896,34.5217391 29.4888889,34.5217391 L15.1388388,34.5217391 L15.1388388,34.5217391 C14.2024721,34.5217391 13.443397,33.762664 13.443397,32.8262973 L13.443397,17.5652174 C13.443397,14.7559457 15.7117155,12.4782609 18.5094351,12.4782609 L41.3066069,12.4782609 C42.2391801,12.4782609 42.9952863,11.7190326 42.9952863,10.7826087 L42.9952863,5.69565217 C42.9952863,4.75922826 42.2391801,4 41.3066069,4 L18.5094351,4 C11.0484274,4 5,10.0734022 5,17.5652174 L5,41.3043478 C5,42.2407717 5.75568403,43 6.68867939,43 L29.4888889,43 C36.9612952,43 42.9118677,36.5128693 42.9952863,29.0108696 C43,28.5869565 43,21.3804348 43,20.9565217 C42.9987335,20.0209457 42.24284,19.2608696 41.3111111,19.2608696 Z" id="logo_gitee"></path>
        </g>
    </g>
</svg>